<?xml version="1.0" encoding="utf-8"?>
<!-- Generator: Adobe Illustrator 16.0.0, SVG Export Plug-In . SVG Version: 6.00 Build 0)  -->
<!DOCTYPE svg PUBLIC "-//W3C//DTD SVG 1.1//EN" "http://www.w3.org/Graphics/SVG/1.1/DTD/svg11.dtd">
<svg version="1.1" id="buy-title-svg" xmlns="http://www.w3.org/2000/svg" xmlns:xlink="http://www.w3.org/1999/xlink" x="0px" y="0px"
	 width="250.001px" height="82.847px" viewBox="0 0 250.001 82.847" enable-background="new 0 0 250.001 82.847"
	 xml:space="preserve">

<g id="logo-wrapper">
<g id="dot_1_" class="it">
	<g>
		<path d="M219.798,1.628C218.74,0.543,217.448,0,215.914,0c-1.533,0-2.827,0.543-3.88,1.628c-1.055,1.086-1.581,2.362-1.581,3.833
			c0,1.597,0.512,2.906,1.534,3.929c1.021,1.023,2.328,1.533,3.927,1.533c1.598,0,2.909-0.51,3.931-1.533
			c1.022-1.022,1.534-2.332,1.534-3.929C221.379,3.991,220.85,2.714,219.798,1.628z"/>
	</g>
</g>
<g>
	<g id="t_1_" class="it">
		<g>
			<path d="M249.715,55.346c-1.021,0.511-2.104,0.891-3.251,1.142c-1.143,0.254-2.262,0.381-3.346,0.381
				c-1.656,0-2.93-0.271-3.825-0.808c-0.893-0.537-1.559-1.27-2.005-2.188s-0.702-1.996-0.764-3.231
				c-0.065-1.233-0.098-2.578-0.098-4.037V24.371h13.192v-6.272h-13.192V5.461h-7.458v12.637h-9.746v6.272h9.746v24.417
				c0,2.285,0.146,4.358,0.434,6.227c0.286,1.868,0.873,3.435,1.77,4.703c0.891,1.266,2.13,2.248,3.728,2.944
				c1.589,0.696,3.729,1.046,6.404,1.046c1.398,0,2.878-0.128,4.442-0.381c1.563-0.254,2.979-0.665,4.255-1.236L249.715,55.346z"/>
		</g>
	</g>
	<g id="main-word">
		<path d="M1.432,17.979h6.301l10.693,37.09h0.191l12.315-37.09h5.442l13.08,37.09h0.191l10.406-37.09h5.728L52.795,62.258h-5.919
			L33.701,26.03H33.51L21.194,62.258h-5.919L1.432,17.979z"/>
		<path d="M74.848,30.439c0-0.83-0.033-1.836-0.096-3.019c-0.064-1.182-0.112-2.379-0.143-3.594
			c-0.033-1.213-0.081-2.348-0.143-3.402c-0.064-1.054-0.096-1.869-0.096-2.444h5.729c0.063,1.663,0.11,3.259,0.143,4.792
			c0.031,1.534,0.11,2.525,0.239,2.971c1.463-2.619,3.341-4.759,5.633-6.421c2.291-1.661,5.091-2.492,8.401-2.492
			c0.573,0,1.129,0.048,1.67,0.144c0.54,0.096,1.098,0.208,1.671,0.335l-0.668,5.655c-0.764-0.254-1.496-0.383-2.196-0.383
			c-2.482,0-4.63,0.4-6.444,1.198c-1.814,0.8-3.31,1.902-4.487,3.307c-1.179,1.406-2.053,3.052-2.625,4.936
			c-0.573,1.885-0.859,3.915-0.859,6.086v24.151h-5.728V30.439z"/>
		<path d="M140.913,43.665c0,2.173,0.016,4.121,0.047,5.846c0.031,1.726,0.08,3.323,0.145,4.792
			c0.063,1.471,0.143,2.844,0.238,4.121c0.096,1.279,0.238,2.557,0.43,3.834h-5.346c-0.383-2.171-0.574-4.567-0.574-7.188h-0.191
			c-1.655,2.876-3.708,4.984-6.157,6.326c-2.451,1.342-5.554,2.013-9.309,2.013c-1.909,0-3.788-0.24-5.633-0.719
			c-1.847-0.479-3.501-1.246-4.964-2.301c-1.465-1.054-2.658-2.411-3.58-4.073c-0.923-1.66-1.384-3.673-1.384-6.038
			c0-3.386,0.859-6.069,2.578-8.05s3.833-3.466,6.349-4.457c2.514-0.989,5.187-1.629,8.02-1.917c2.832-0.287,5.33-0.431,7.495-0.431
			h6.682v-2.684c0-3.834-1.178-6.58-3.532-8.243c-2.355-1.661-5.315-2.492-8.879-2.492c-5.093,0-9.58,1.662-13.461,4.984
			l-3.342-3.93c2.101-2.044,4.709-3.594,7.829-4.648c3.118-1.055,6.11-1.582,8.974-1.582c5.347,0,9.61,1.262,12.793,3.786
			c3.182,2.525,4.773,6.598,4.773,12.22V43.665z M129.457,40.022c-2.419,0-4.759,0.161-7.017,0.479
			c-2.26,0.32-4.296,0.862-6.11,1.63c-1.814,0.767-3.262,1.789-4.344,3.066c-1.083,1.279-1.623,2.875-1.623,4.792
			c0,1.342,0.301,2.54,0.907,3.594c0.604,1.055,1.384,1.917,2.339,2.588s2.02,1.184,3.198,1.533c1.177,0.353,2.371,0.527,3.58,0.527
			c3.055,0,5.569-0.446,7.542-1.342c1.972-0.894,3.547-2.061,4.726-3.498c1.177-1.438,1.988-3.066,2.434-4.888
			c0.445-1.821,0.668-3.657,0.668-5.511v-2.972H129.457z"/>
		<path d="M154.946,17.979h5.729v7.763h0.19c0.891-1.533,2.005-2.859,3.342-3.978c1.337-1.117,2.783-2.044,4.344-2.779
			c1.559-0.734,3.198-1.277,4.917-1.629c1.718-0.35,3.404-0.527,5.06-0.527c3.373,0,6.476,0.575,9.309,1.725
			c2.831,1.15,5.282,2.764,7.351,4.84c2.068,2.077,3.676,4.538,4.821,7.38c1.146,2.844,1.719,5.958,1.719,9.345
			s-0.572,6.502-1.719,9.344c-1.146,2.844-2.753,5.305-4.821,7.38c-2.068,2.077-4.52,3.689-7.351,4.84
			c-2.833,1.15-5.936,1.726-9.309,1.726c-1.655,0-3.342-0.177-5.06-0.527c-1.719-0.352-3.358-0.895-4.917-1.629
			c-1.561-0.734-3.007-1.661-4.344-2.78c-1.337-1.116-2.451-2.443-3.342-3.977h-0.19v29.614h-5.729V17.979z M160.102,40.119
			c0,2.491,0.478,4.84,1.433,7.044c0.954,2.204,2.258,4.121,3.914,5.75c1.654,1.63,3.595,2.924,5.823,3.882
			c2.228,0.958,4.646,1.438,7.256,1.438c2.673,0,5.092-0.479,7.256-1.438c2.163-0.958,4.01-2.252,5.537-3.882
			c1.527-1.629,2.688-3.546,3.484-5.75s1.193-4.553,1.193-7.044c0-2.492-0.397-4.841-1.193-7.044
			c-0.796-2.205-1.957-4.122-3.484-5.751c-1.527-1.629-3.374-2.923-5.537-3.882c-2.164-0.958-4.583-1.438-7.256-1.438
			c-2.61,0-5.028,0.479-7.256,1.438c-2.229,0.958-4.169,2.252-5.823,3.882c-1.656,1.629-2.96,3.546-3.914,5.751
			C160.579,35.278,160.102,37.627,160.102,40.119z"/>
	</g>
	<g id="i_1_" class="it">
		<g>
			<rect x="212.873" y="18.105" width="7.457" height="42.817"/>
		</g>
	</g>
</g>
</g>
</svg>
